<mxfile host="app.diagrams.net" modified="2021-04-08T19:59:45.157Z" agent="5.0 (Windows)" etag="ptC5Gb7qkzntoIaGtfCp" version="14.5.7" type="github">
  <diagram name="Page-1" id="e7e014a7-5840-1c2e-5031-d8a46d1fe8dd">
    <mxGraphModel dx="1185" dy="651" grid="1" gridSize="10" guides="1" tooltips="1" connect="1" arrows="1" fold="1" page="1" pageScale="1" pageWidth="1169" pageHeight="826" background="#ffffff" math="0" shadow="0">
      <root>
        <mxCell id="0" />
        <mxCell id="1" parent="0" />
        <mxCell id="2" value="Cliente" style="swimlane;whiteSpace=wrap" parent="1" vertex="1">
          <mxGeometry x="201.5" y="35.5" width="280" height="734.5" as="geometry" />
        </mxCell>
        <mxCell id="ZA-KN9Rf8BJQ1v--GHor-42" value="Solicitar equipo" style="rounded=1;whiteSpace=wrap;html=1;arcSize=50;" vertex="1" parent="2">
          <mxGeometry x="108.5" y="36" width="120" height="62" as="geometry" />
        </mxCell>
        <mxCell id="ZA-KN9Rf8BJQ1v--GHor-43" value="" style="edgeStyle=elbowEdgeStyle;elbow=horizontal;verticalAlign=bottom;endArrow=open;endSize=8;endFill=1;rounded=0" edge="1" parent="2">
          <mxGeometry x="290" y="19" as="geometry">
            <mxPoint x="496.5" y="72" as="targetPoint" />
            <mxPoint x="218.5" y="46.5" as="sourcePoint" />
            <Array as="points">
              <mxPoint x="497" y="52" />
            </Array>
          </mxGeometry>
        </mxCell>
        <mxCell id="38" value="" style="ellipse;shape=endState;fillColor=#000000;" parent="2" vertex="1">
          <mxGeometry x="88.5" y="694.5" width="30" height="30" as="geometry" />
        </mxCell>
        <mxCell id="ZA-KN9Rf8BJQ1v--GHor-61" value="EnvÃ­o mensaje &quot;Equipo Denegado&quot;" style="rounded=1;whiteSpace=wrap;html=1;arcSize=50;" vertex="1" parent="2">
          <mxGeometry x="48.5" y="464.5" width="120" height="62" as="geometry" />
        </mxCell>
        <mxCell id="ZA-KN9Rf8BJQ1v--GHor-66" value="" style="rhombus;whiteSpace=wrap;html=1;strokeColor=#000000;fillColor=none;" vertex="1" parent="2">
          <mxGeometry x="94.13" y="375.5" width="37.75" height="24.5" as="geometry" />
        </mxCell>
        <mxCell id="ZA-KN9Rf8BJQ1v--GHor-84" value="&lt;div&gt;Entrega &lt;br&gt;&lt;/div&gt;&lt;div&gt;al cliente&lt;/div&gt;" style="rounded=1;whiteSpace=wrap;html=1;arcSize=50;" vertex="1" parent="2">
          <mxGeometry x="48.5" y="604.5" width="120" height="62" as="geometry" />
        </mxCell>
        <mxCell id="ZA-KN9Rf8BJQ1v--GHor-85" value="" style="edgeStyle=elbowEdgeStyle;elbow=horizontal;verticalAlign=bottom;endArrow=open;endSize=8;endFill=1;rounded=0;" edge="1" parent="2">
          <mxGeometry x="37" y="245.5" as="geometry">
            <mxPoint x="103" y="694.5" as="targetPoint" />
            <mxPoint x="103.5" y="664.5" as="sourcePoint" />
            <Array as="points" />
          </mxGeometry>
        </mxCell>
        <mxCell id="5" value="" style="ellipse;shape=startState;fillColor=#000000;" parent="2" vertex="1">
          <mxGeometry x="29.5" y="52" width="30" height="30" as="geometry" />
        </mxCell>
        <mxCell id="3" value="Tienda" style="swimlane;whiteSpace=wrap" parent="1" vertex="1">
          <mxGeometry x="481.5" y="35.5" width="308.5" height="734.5" as="geometry" />
        </mxCell>
        <mxCell id="ZA-KN9Rf8BJQ1v--GHor-45" value="" style="html=1;points=[];perimeter=orthogonalPerimeter;fillColor=#000000;strokeColor=none;rotation=90;" vertex="1" parent="3">
          <mxGeometry x="285.25" y="-167.75" width="5" height="487.5" as="geometry" />
        </mxCell>
        <mxCell id="ZA-KN9Rf8BJQ1v--GHor-46" value="" style="edgeStyle=elbowEdgeStyle;elbow=horizontal;verticalAlign=bottom;endArrow=open;endSize=8;endFill=1;rounded=0" edge="1" parent="3">
          <mxGeometry x="240" y="41" as="geometry">
            <mxPoint x="95.5" y="108" as="targetPoint" />
            <mxPoint x="95.5" y="78" as="sourcePoint" />
          </mxGeometry>
        </mxCell>
        <mxCell id="ZA-KN9Rf8BJQ1v--GHor-77" value="Comprobar disponibilidad componentes" style="rounded=1;whiteSpace=wrap;html=1;arcSize=50;" vertex="1" parent="3">
          <mxGeometry x="99" y="461.5" width="120" height="62" as="geometry" />
        </mxCell>
        <mxCell id="ZA-KN9Rf8BJQ1v--GHor-78" value="" style="rhombus;whiteSpace=wrap;html=1;strokeColor=#000000;" vertex="1" parent="3">
          <mxGeometry x="136" y="543.5" width="40" height="44.5" as="geometry" />
        </mxCell>
        <mxCell id="ZA-KN9Rf8BJQ1v--GHor-79" value="" style="edgeStyle=elbowEdgeStyle;elbow=horizontal;verticalAlign=bottom;endArrow=open;endSize=8;endFill=1;rounded=0" edge="1" parent="3">
          <mxGeometry x="-1204.5" y="279" as="geometry">
            <mxPoint x="155.5" y="543.5" as="targetPoint" />
            <mxPoint x="155.5" y="523.5" as="sourcePoint" />
          </mxGeometry>
        </mxCell>
        <mxCell id="ZA-KN9Rf8BJQ1v--GHor-81" value="" style="edgeStyle=elbowEdgeStyle;elbow=horizontal;verticalAlign=bottom;endArrow=open;endSize=8;endFill=1;rounded=0;" edge="1" parent="3">
          <mxGeometry x="-1342.5" y="176" as="geometry">
            <mxPoint x="155.5" y="630" as="targetPoint" />
            <mxPoint x="155.5" y="587.5" as="sourcePoint" />
          </mxGeometry>
        </mxCell>
        <mxCell id="ZA-KN9Rf8BJQ1v--GHor-82" value="&lt;div&gt;Montaje&lt;/div&gt;&lt;div&gt;equipo&lt;/div&gt;" style="rounded=1;whiteSpace=wrap;html=1;arcSize=50;" vertex="1" parent="3">
          <mxGeometry x="96" y="627.5" width="120" height="62" as="geometry" />
        </mxCell>
        <mxCell id="ZA-KN9Rf8BJQ1v--GHor-83" value="" style="edgeStyle=elbowEdgeStyle;elbow=horizontal;verticalAlign=bottom;endArrow=open;endSize=8;endFill=1;rounded=0;" edge="1" parent="3">
          <mxGeometry x="-1419.5" y="225.75" as="geometry">
            <mxPoint x="-111.5" y="644.5" as="targetPoint" />
            <mxPoint x="98.5" y="644.5" as="sourcePoint" />
            <Array as="points">
              <mxPoint x="39" y="655" />
            </Array>
          </mxGeometry>
        </mxCell>
        <mxCell id="ZA-KN9Rf8BJQ1v--GHor-89" value="Si disponible" style="text;html=1;strokeColor=none;fillColor=none;align=center;verticalAlign=middle;whiteSpace=wrap;rounded=0;" vertex="1" parent="3">
          <mxGeometry x="156.5" y="594.5" width="90" height="20" as="geometry" />
        </mxCell>
        <mxCell id="ZA-KN9Rf8BJQ1v--GHor-90" value="No disponible" style="text;html=1;strokeColor=none;fillColor=none;align=center;verticalAlign=middle;whiteSpace=wrap;rounded=0;" vertex="1" parent="3">
          <mxGeometry x="38.5" y="544.5" width="90" height="20" as="geometry" />
        </mxCell>
        <mxCell id="ZA-KN9Rf8BJQ1v--GHor-94" value="" style="edgeStyle=elbowEdgeStyle;elbow=horizontal;verticalAlign=bottom;endArrow=open;endSize=8;endFill=1;rounded=0;exitX=0.5;exitY=1;exitDx=0;exitDy=0;" edge="1" parent="3" source="ZA-KN9Rf8BJQ1v--GHor-50">
          <mxGeometry x="-918" y="-201.5" as="geometry">
            <mxPoint x="98.5" y="404.5" as="targetPoint" />
            <mxPoint x="98.5" y="174.5" as="sourcePoint" />
          </mxGeometry>
        </mxCell>
        <mxCell id="ZA-KN9Rf8BJQ1v--GHor-95" value="" style="html=1;points=[];perimeter=orthogonalPerimeter;fillColor=#000000;strokeColor=none;rotation=90;" vertex="1" parent="3">
          <mxGeometry x="137.5" y="319.25" width="5" height="172" as="geometry" />
        </mxCell>
        <mxCell id="ZA-KN9Rf8BJQ1v--GHor-99" value="" style="edgeStyle=elbowEdgeStyle;elbow=horizontal;verticalAlign=bottom;endArrow=open;endSize=8;endFill=1;rounded=0;entryX=0.5;entryY=0;entryDx=0;entryDy=0;exitX=0.95;exitY=0.381;exitDx=0;exitDy=0;exitPerimeter=0;" edge="1" parent="3" source="ZA-KN9Rf8BJQ1v--GHor-95" target="ZA-KN9Rf8BJQ1v--GHor-77">
          <mxGeometry x="-816.48" y="-131.5" as="geometry">
            <mxPoint x="258.5" y="244.5" as="targetPoint" />
            <mxPoint x="200.01999999999998" y="244.5" as="sourcePoint" />
            <Array as="points">
              <mxPoint x="159" y="345" />
            </Array>
          </mxGeometry>
        </mxCell>
        <mxCell id="4" value="Microsoft" style="swimlane;whiteSpace=wrap" parent="1" vertex="1">
          <mxGeometry x="790" y="40" width="280" height="734.5" as="geometry" />
        </mxCell>
        <mxCell id="ZA-KN9Rf8BJQ1v--GHor-48" value="" style="edgeStyle=elbowEdgeStyle;elbow=horizontal;verticalAlign=bottom;endArrow=open;endSize=8;endFill=1;rounded=0" edge="1" parent="4">
          <mxGeometry x="-126.5" y="-90" as="geometry">
            <mxPoint x="173.5" y="105" as="targetPoint" />
            <mxPoint x="173.5" y="75" as="sourcePoint" />
            <Array as="points">
              <mxPoint x="174" y="91" />
            </Array>
          </mxGeometry>
        </mxCell>
        <mxCell id="ZA-KN9Rf8BJQ1v--GHor-49" value="&lt;div&gt;Consulta &lt;br&gt;&lt;/div&gt;&lt;div&gt;viabilidad&lt;/div&gt;" style="rounded=1;whiteSpace=wrap;html=1;arcSize=50;" vertex="1" parent="4">
          <mxGeometry x="120" y="214" width="120" height="62" as="geometry" />
        </mxCell>
        <mxCell id="ZA-KN9Rf8BJQ1v--GHor-55" value="" style="rhombus;whiteSpace=wrap;html=1;strokeColor=#000000;" vertex="1" parent="4">
          <mxGeometry x="153" y="302" width="40" height="44.5" as="geometry" />
        </mxCell>
        <mxCell id="ZA-KN9Rf8BJQ1v--GHor-70" value="" style="edgeStyle=elbowEdgeStyle;elbow=horizontal;verticalAlign=bottom;endArrow=open;endSize=8;endFill=1;rounded=0;exitX=0.443;exitY=0.981;exitDx=0;exitDy=0;exitPerimeter=0;" edge="1" parent="4" source="ZA-KN9Rf8BJQ1v--GHor-49">
          <mxGeometry x="-397.5" y="73" as="geometry">
            <mxPoint x="172.5" y="302" as="targetPoint" />
            <mxPoint x="172.5" y="282" as="sourcePoint" />
          </mxGeometry>
        </mxCell>
        <mxCell id="ZA-KN9Rf8BJQ1v--GHor-86" value="Si compatible" style="text;html=1;strokeColor=none;fillColor=none;align=center;verticalAlign=middle;whiteSpace=wrap;rounded=0;" vertex="1" parent="4">
          <mxGeometry x="170" y="367.5" width="90" height="20" as="geometry" />
        </mxCell>
        <mxCell id="ZA-KN9Rf8BJQ1v--GHor-88" value="No compatible" style="text;html=1;strokeColor=none;fillColor=none;align=center;verticalAlign=middle;whiteSpace=wrap;rounded=0;" vertex="1" parent="4">
          <mxGeometry x="50" y="302" width="90" height="20" as="geometry" />
        </mxCell>
        <mxCell id="ZA-KN9Rf8BJQ1v--GHor-57" value="ComunicaciÃ³n a tienda" style="rounded=1;whiteSpace=wrap;html=1;arcSize=50;" vertex="1" parent="4">
          <mxGeometry x="20" y="357" width="120" height="62" as="geometry" />
        </mxCell>
        <mxCell id="6" value="" style="edgeStyle=elbowEdgeStyle;elbow=horizontal;verticalAlign=bottom;endArrow=open;endSize=8;endFill=1;rounded=0" parent="1" target="ZA-KN9Rf8BJQ1v--GHor-42" edge="1">
          <mxGeometry x="301.5" y="75.5" as="geometry">
            <mxPoint x="317" y="145.5" as="targetPoint" />
            <mxPoint x="260" y="103" as="sourcePoint" />
          </mxGeometry>
        </mxCell>
        <mxCell id="ZA-KN9Rf8BJQ1v--GHor-50" value="RecepciÃ³n solicitud equipo" style="rounded=1;whiteSpace=wrap;html=1;arcSize=50;" vertex="1" parent="1">
          <mxGeometry x="521" y="144.5" width="120" height="62" as="geometry" />
        </mxCell>
        <mxCell id="ZA-KN9Rf8BJQ1v--GHor-51" value="RecepciÃ³n solicitud equipo" style="rounded=1;whiteSpace=wrap;html=1;arcSize=50;" vertex="1" parent="1">
          <mxGeometry x="907" y="145.5" width="120" height="62" as="geometry" />
        </mxCell>
        <mxCell id="ZA-KN9Rf8BJQ1v--GHor-52" value="" style="edgeStyle=elbowEdgeStyle;elbow=horizontal;verticalAlign=bottom;endArrow=open;endSize=8;endFill=1;rounded=0;entryX=0.454;entryY=0.046;entryDx=0;entryDy=0;entryPerimeter=0;" edge="1" parent="1" target="ZA-KN9Rf8BJQ1v--GHor-49">
          <mxGeometry x="-50.5" y="-168.5" as="geometry">
            <mxPoint x="966" y="250" as="targetPoint" />
            <mxPoint x="966" y="207.5" as="sourcePoint" />
          </mxGeometry>
        </mxCell>
        <mxCell id="ZA-KN9Rf8BJQ1v--GHor-58" value="" style="edgeStyle=elbowEdgeStyle;elbow=horizontal;verticalAlign=bottom;endArrow=open;endSize=8;endFill=1;rounded=0;exitX=0.5;exitY=1;exitDx=0;exitDy=0;" edge="1" parent="1" source="ZA-KN9Rf8BJQ1v--GHor-55">
          <mxGeometry x="835.5" y="260.5" as="geometry">
            <mxPoint x="930" y="424" as="targetPoint" />
            <mxPoint x="964" y="393" as="sourcePoint" />
            <Array as="points">
              <mxPoint x="964" y="424" />
              <mxPoint x="1449" y="566" />
            </Array>
          </mxGeometry>
        </mxCell>
        <mxCell id="ZA-KN9Rf8BJQ1v--GHor-73" value="" style="rhombus;whiteSpace=wrap;html=1;strokeColor=#000000;fillColor=none;" vertex="1" parent="1">
          <mxGeometry x="301.63" y="411" width="37.75" height="24.5" as="geometry" />
        </mxCell>
        <mxCell id="ZA-KN9Rf8BJQ1v--GHor-75" value="" style="edgeStyle=elbowEdgeStyle;elbow=horizontal;verticalAlign=bottom;endArrow=open;endSize=8;endFill=1;rounded=0;exitX=0.389;exitY=0.966;exitDx=0;exitDy=0;exitPerimeter=0;" edge="1" parent="1" source="ZA-KN9Rf8BJQ1v--GHor-73" target="ZA-KN9Rf8BJQ1v--GHor-61">
          <mxGeometry x="250" y="51" as="geometry">
            <mxPoint x="587" y="153.5" as="targetPoint" />
            <mxPoint x="587" y="123.5" as="sourcePoint" />
            <Array as="points" />
          </mxGeometry>
        </mxCell>
        <mxCell id="ZA-KN9Rf8BJQ1v--GHor-80" value="" style="edgeStyle=elbowEdgeStyle;elbow=horizontal;verticalAlign=bottom;endArrow=open;endSize=8;endFill=1;rounded=0;exitX=0;exitY=0.5;exitDx=0;exitDy=0;" edge="1" parent="1" source="ZA-KN9Rf8BJQ1v--GHor-78">
          <mxGeometry x="487" y="458.75" as="geometry">
            <mxPoint x="340" y="421" as="targetPoint" />
            <mxPoint x="650" y="600" as="sourcePoint" />
            <Array as="points">
              <mxPoint x="520" y="510" />
              <mxPoint x="1100.5" y="764.25" />
            </Array>
          </mxGeometry>
        </mxCell>
        <mxCell id="ZA-KN9Rf8BJQ1v--GHor-56" value="" style="edgeStyle=elbowEdgeStyle;elbow=horizontal;verticalAlign=bottom;endArrow=open;endSize=8;endFill=1;rounded=0;exitX=0.046;exitY=0.209;exitDx=0;exitDy=0;exitPerimeter=0;" edge="1" parent="1" source="ZA-KN9Rf8BJQ1v--GHor-57">
          <mxGeometry x="811.5" y="260.5" as="geometry">
            <mxPoint x="681" y="440" as="targetPoint" />
            <mxPoint x="810" y="413" as="sourcePoint" />
            <Array as="points">
              <mxPoint x="680.5" y="440.5" />
            </Array>
          </mxGeometry>
        </mxCell>
        <mxCell id="ZA-KN9Rf8BJQ1v--GHor-69" value="" style="edgeStyle=elbowEdgeStyle;elbow=horizontal;verticalAlign=bottom;endArrow=open;endSize=8;endFill=1;rounded=0;entryX=0.5;entryY=0;entryDx=0;entryDy=0;exitX=0;exitY=0.5;exitDx=0;exitDy=0;" edge="1" parent="1" source="ZA-KN9Rf8BJQ1v--GHor-55" target="ZA-KN9Rf8BJQ1v--GHor-66">
          <mxGeometry x="333" y="227.5" as="geometry">
            <mxPoint x="741" y="316" as="targetPoint" />
            <mxPoint x="920" y="360" as="sourcePoint" />
            <Array as="points">
              <mxPoint x="315" y="364" />
              <mxPoint x="720" y="350" />
              <mxPoint x="630" y="331" />
            </Array>
          </mxGeometry>
        </mxCell>
      </root>
    </mxGraphModel>
  </diagram>
</mxfile>
